<svg xmlns="http://www.w3.org/2000/svg" viewBox="0 0 128 128" role="img" aria-labelledby="title">
  <title id="title">Flying British robin over weather-radar circles</title>
  <circle cx="64" cy="64" r="57" fill="#070a0b" stroke="#eef4ef" stroke-width="4"/>
  <circle cx="64" cy="64" r="42" fill="none" stroke="#596660" stroke-width="2"/>
  <circle cx="64" cy="64" r="27" fill="none" stroke="#596660" stroke-width="2"/>

  <path d="M40 68c-6-1-11-3-15-6l4 8-6 6c6 0 12-1 19-3Z" fill="#766d65"/>
  <path d="M35 70c7-13 21-18 40-17 18 1 29 9 29 19 0 11-13 19-32 19-19 0-32-8-37-21Z" fill="#aaa097"/>
  <path d="M79 53c16 2 25 9 25 19 0 10-11 17-25 19-7-11-8-27 0-38Z" fill="#df6541"/>
  <path d="M67 71c-12-1-22-5-29-12 7 0 14 2 20 6-6-6-11-13-13-20 8 2 15 7 20 13-3-7-3-13-1-18 6 6 9 14 9 22 0 5-2 8-6 9Z" fill="#81766d"/>
  <circle cx="91" cy="62" r="3.1" fill="#070a0b"/>
  <circle cx="92" cy="61" r=".9" fill="#eef4ef"/>
  <path d="m103 68 11 3-11 4Z" fill="#b8b0a7"/>
</svg>
