<svg xmlns="http://www.w3.org/2000/svg" viewBox="0 0 128 128" role="img" aria-labelledby="title">
  <title id="title">Flying British robin over weather-radar circles</title>
  <circle cx="64" cy="64" r="57" fill="#070a0b" stroke="#eef4ef" stroke-width="4"/>
  <circle cx="64" cy="64" r="42" fill="none" stroke="#596660" stroke-width="2"/>
  <circle cx="64" cy="64" r="27" fill="none" stroke="#596660" stroke-width="2"/>

  <path d="M58 66c-4-12-5-23-2-34 4 6 7 13 9 21-1-12 1-21 5-29 4 10 5 21 3 32 4-9 8-16 14-21-1 13-6 24-15 32Z" fill="#55402f"/>
  <path d="M64 69c-11-4-19-12-23-22 6 3 12 8 17 14-5-8-7-16-6-23 7 5 12 12 15 20-2-10-1-18 2-25 6 9 9 19 8 29-2 6-6 8-13 7Z" fill="#927557"/>
  <path d="M46 74 15 82l14 3-12 7 35-12Z" fill="#5f4935"/>
  <path d="M40 72c9-8 25-13 43-12 16 0 25 7 24 16-1 10-14 17-32 17-16 0-29-7-35-21Z" fill="#b7bab9"/>
  <path d="M43 71c11-9 26-14 42-13 9 0 16 3 20 8-10-2-19 1-25 8-13-4-25-3-40 4Z" fill="#806749"/>
  <path d="M86 59c12 0 20 6 21 14 0 8-8 14-19 17-4-4-3-9 0-14-5-5-5-12-2-17Z" fill="#e86635"/>
  <path d="m84 63 9-4c-4 2-7 5-9 9l-7-2Z" fill="#c8ccca"/>
  <circle cx="98" cy="66" r="2.8" fill="#070a0b"/>
  <circle cx="99" cy="65" r=".8" fill="#eef4ef"/>
  <path d="m106 70 10 3-10 3Z" fill="#070a0b"/>
  <path d="M62 91c-1 6-4 10-8 10-3 0-5-1-6-3m27-6c-1 6-4 10-8 10-3 0-5-1-6-3" fill="none" stroke="#070a0b" stroke-linecap="round" stroke-width="2"/>
</svg>
