<svg xmlns="http://www.w3.org/2000/svg" viewBox="0 0 128 128" role="img" aria-labelledby="title">
  <title id="title">Flying British robin over weather-radar circles</title>
  <circle cx="64" cy="64" r="57" fill="#070a0b" stroke="#eef4ef" stroke-width="4"/>
  <circle cx="64" cy="64" r="42" fill="none" stroke="#596660" stroke-width="2"/>
  <circle cx="64" cy="64" r="27" fill="none" stroke="#596660" stroke-width="2"/>

  <path d="M40 69c-5-1-10-3-14-6l4 7-6 5c6 0 11-1 18-3Z" fill="#766d65"/>
  <path d="M36 72c6-10 20-15 39-15 18 0 29 6 29 15 0 9-13 16-32 16-18 0-31-6-36-16Z" fill="#aaa097"/>
  <path d="M84 58c13 2 20 7 20 14 0 8-8 13-20 15-5-8-5-21 0-29Z" fill="#df6541"/>
  <path d="M68 70c-10-1-19-6-25-14 11 2 20 7 27 12 1 1 0 2-2 2Z" fill="#81766d"/>
  <circle cx="94" cy="64" r="2.6" fill="#070a0b"/>
  <circle cx="95" cy="63" r=".75" fill="#eef4ef"/>
  <path d="m103 69 10 3-10 3Z" fill="#b8b0a7"/>
</svg>
