<svg xmlns="http://www.w3.org/2000/svg" viewBox="0 0 128 128" role="img" aria-labelledby="title">
  <title id="title">Flying British robin over weather-radar circles</title>
  <circle cx="64" cy="64" r="57" fill="#070a0b" stroke="#eef4ef" stroke-width="4"/>
  <circle cx="64" cy="64" r="42" fill="none" stroke="#64736c" stroke-width="2"/>
  <circle cx="64" cy="64" r="27" fill="none" stroke="#64736c" stroke-width="2"/>
  <path d="M64 64 102 35" fill="none" stroke="#64736c" stroke-width="2"/>

  <path d="M58 64C47 57 37 42 32 21c10 5 19 15 25 27-3-16-1-29 5-39 6 14 8 29 4 44 7-13 17-23 29-29-6 18-17 33-30 42Z" fill="#9ca6a0"/>
  <path d="M56 59C48 50 42 40 38 29M63 55c-2-14-2-26 0-36M69 57c5-12 12-21 20-27" fill="none" stroke="#6d7772" stroke-width="2" stroke-linecap="round"/>

  <path d="m43 67-28 9 28 8 15-11Z" fill="#7d8782"/>
  <path d="M40 66c12-12 27-17 43-13 12 3 20 11 20 20-1 10-10 17-23 19-18 3-34-4-44-17Z" fill="#e8eeea"/>
  <path d="M54 78c11 6 24 7 37 2-8 10-19 18-33 25-6-9-10-18-11-27Z" fill="#9ca6a0"/>
  <path d="M57 83c8 7 17 12 27 16M65 82c7 5 14 8 22 10" fill="none" stroke="#707a75" stroke-width="2" stroke-linecap="round"/>

  <path d="M76 52c13-1 24 7 27 19-2 9-9 16-19 20-9-3-15-9-18-18-2-8 2-16 10-21Z" fill="#c94f3c"/>
  <path d="M66 72c7 7 17 10 28 8-4 7-11 11-20 13-8-2-14-7-18-13Z" fill="#d7dfda"/>
  <circle cx="88" cy="60" r="3.1" fill="#070a0b"/>
  <circle cx="89" cy="59" r=".9" fill="#eef4ef"/>
  <path d="m100 65 16 4-16 4Z" fill="#b8c1bb"/>
</svg>
