<svg xmlns="http://www.w3.org/2000/svg" viewBox="0 0 128 128" role="img" aria-labelledby="title">
  <title id="title">Flying British robin over weather-radar circles</title>
  <circle cx="64" cy="64" r="57" fill="#070a0b" stroke="#eef4ef" stroke-width="4"/>
  <circle cx="64" cy="64" r="42" fill="none" stroke="#596660" stroke-width="2"/>
  <circle cx="64" cy="64" r="27" fill="none" stroke="#596660" stroke-width="2"/>

  <path d="M58 65C47 56 40 40 41 22c14 8 24 21 29 37 2 6-5 10-12 6Z" fill="#897b69"/>
  <path d="m41 68-22 7 22 8 14-11Z" fill="#746b60"/>
  <path d="M35 70c12-17 33-25 52-19 13 4 21 14 18 25-3 13-19 21-38 19-15-2-27-11-32-25Z" fill="#e8ede9"/>
  <path d="M79 50c14 0 25 9 27 21-2 11-10 19-22 22-10-5-16-13-17-23 0-9 4-16 12-20Z" fill="#c94f3c"/>
  <circle cx="91" cy="60" r="3.1" fill="#070a0b"/>
  <circle cx="92" cy="59" r=".9" fill="#eef4ef"/>
  <path d="m104 66 13 4-13 4Z" fill="#aeb8b2"/>
</svg>
