<svg xmlns="http://www.w3.org/2000/svg" viewBox="0 0 128 128" role="img" aria-labelledby="title">
  <title id="title">European robin and weather radar</title>
  <circle cx="64" cy="64" r="57" fill="#070a0b" stroke="#eef4ef" stroke-width="4"/>
  <circle cx="64" cy="64" r="42" fill="none" stroke="#64736c" stroke-width="2"/>
  <circle cx="64" cy="64" r="27" fill="none" stroke="#64736c" stroke-width="2"/>
  <path d="M64 64 103 34A50 50 0 0 1 111 48Z" fill="#f2b632" opacity=".9"/>
  <path d="M30 88c8-8 14-20 16-32 2-15 12-26 26-26 12 0 21 7 24 18 3 12-4 23-14 29-8 5-14 12-18 21H39Z" fill="#edf3ee"/>
  <path d="M52 53c3-10 10-16 20-16 9 0 15 5 18 13-12-3-25-2-38 3Z" fill="#d85032"/>
  <circle cx="79" cy="43" r="3" fill="#070a0b"/>
  <path d="m91 48 17 5-17 5Z" fill="#edf3ee"/>
  <path d="M49 96h31M58 94l-7 13M68 94l6 13" fill="none" stroke="#edf3ee" stroke-width="4" stroke-linecap="round"/>
  <path d="M19 105h90" stroke="#f2b632" stroke-width="4" stroke-linecap="round"/>
</svg>
