<svg xmlns="http://www.w3.org/2000/svg" viewBox="0 0 128 128" role="img" aria-labelledby="title">
  <title id="title">Flying British robin over weather-radar circles</title>
  <circle cx="64" cy="64" r="57" fill="#070a0b" stroke="#eef4ef" stroke-width="4"/>
  <circle cx="64" cy="64" r="42" fill="none" stroke="#596660" stroke-width="2"/>
  <circle cx="64" cy="64" r="27" fill="none" stroke="#596660" stroke-width="2"/>

  <path d="M57 64C46 55 39 39 40 20c14 8 25 22 31 39 2 6-5 10-14 5Z" fill="#897b69"/>
  <path d="m40 67-23 8 23 8 15-11Z" fill="#746b60"/>
  <path d="M35 70c12-17 33-25 52-19 13 4 21 14 18 25-3 13-19 21-38 19-15-2-27-11-32-25Z" fill="#e8ede9"/>
  <path d="M38 67c11-13 27-20 44-17-10 4-19 12-25 22-8 1-15-1-19-5Z" fill="#9b8b77"/>
  <path d="M58 77c10 7 23 12 37 13-10 9-24 12-37 5-6-4-10-10-12-17Z" fill="#897b69"/>
  <path d="M79 50c14 0 25 9 27 21-2 11-10 19-22 22-10-5-16-13-17-23 0-9 4-16 12-20Z" fill="#c94f3c"/>
  <path d="M67 76c8 7 18 10 30 8-4 6-10 10-18 11-7-3-12-8-15-14Z" fill="#d8dfda"/>
  <circle cx="91" cy="60" r="3.1" fill="#070a0b"/>
  <circle cx="92" cy="59" r=".9" fill="#eef4ef"/>
  <path d="m104 66 13 4-13 4Z" fill="#aeb8b2"/>
</svg>
