<svg xmlns="http://www.w3.org/2000/svg" viewBox="0 0 128 128" role="img" aria-labelledby="title">
  <title id="title">Flying British robin over weather-radar circles</title>
  <circle cx="64" cy="64" r="57" fill="#070a0b" stroke="#eef4ef" stroke-width="4"/>
  <circle cx="64" cy="64" r="42" fill="none" stroke="#596660" stroke-width="2"/>
  <circle cx="64" cy="64" r="27" fill="none" stroke="#596660" stroke-width="2"/>

  <path d="m40 67-21-8 6 13-9 8 26-3Z" fill="#766d65"/>
  <path d="M62 69C49 63 39 51 35 35l13 5-1-17 11 12 5-16 6 19 11-6-7 26Z" fill="#81766d"/>
  <path d="M34 69c7-14 23-21 43-19 17 1 28 10 28 22 0 13-14 22-34 22-19 0-32-9-37-25Z" fill="#aaa097"/>
  <path d="M78 50c17 2 27 10 27 22 0 12-11 20-27 22-8-12-10-30 0-44Z" fill="#df6541"/>
  <circle cx="91" cy="60" r="3.1" fill="#070a0b"/>
  <circle cx="92" cy="59" r=".9" fill="#eef4ef"/>
  <path d="m104 66 13 4-13 4Z" fill="#b8b0a7"/>
</svg>
