<svg xmlns="http://www.w3.org/2000/svg" viewBox="95 45 230 270">
  <path d="m 105.27299,306.47299 c -5.563271,-5.56327 -4.78515,-8.17229 9.68489,-32.47299 6.71378,-11.275 14.08231,-22.44963 16.3745,-24.83252 C 135.25928,245.0852 141.59735,241 144.00397,241 c 0.596,0 3.71227,2.18757 6.92503,4.86126 21.47138,17.86865 52.33599,31.90633 83.071,37.78189 7.425,1.41942 14.57245,3.09289 15.88322,3.71881 1.31077,0.62592 3.51096,3.30402 4.88932,5.95132 2.24746,4.31651 2.38604,5.21406 1.34272,8.69636 -0.63987,2.13568 -2.33825,4.80721 -3.77419,5.93671 C 249.76365,309.97375 248.82968,310 179.26514,310 H 108.8 Z m 148.42202,-30.59141 c -19.38552,-1.86726 -44.37804,-8.97954 -63.41647,-18.04682 -46.30905,-22.05523 -78.71133,-65.18928 -89.74402,-119.46759 -7.741899,-38.0884 -3.823402,-74.183997 9.12493,-84.055161 3.49554,-2.664821 4.21601,-2.808917 13.76458,-2.752936 11.92542,0.06992 17.07235,1.596919 35.07597,10.40641 18.76035,9.17977 43.233,26.060557 62.75,43.283787 6.6684,5.88469 8.33871,9.20385 5.23167,10.39614 -1.63132,0.626 -1.89704,0.43166 -17.97429,-13.14541 -30.66541,-25.896625 -60.205,-42.5 -75.6131,-42.5 -5.35144,0 -6.38484,0.336711 -8.9712,2.923077 C 121.29935,65.546804 121,66.503658 121,72.266526 c 0,20.950394 26.37003,61.262834 68.21973,104.288984 44.90622,46.16861 94.18956,78.8583 114.48754,75.93971 8.64674,-1.24329 11.51123,-9.6587 7.6804,-22.56372 -5.09286,-17.15641 -24.20693,-46.63334 -47.18064,-72.76003 -7.53566,-8.56988 -8.66876,-11.67147 -4.2639,-11.67147 1.8321,0 4.44944,2.41601 10.83337,10 30.21019,35.88921 49.07914,69.8619 50.93633,91.70856 1.19754,14.08703 -3.45569,20.7278 -17.67064,25.2183 -13.55672,4.28256 -30.02273,5.41243 -50.34718,3.45472 z m -39.3373,-107.39179 c -0.70436,-1.83554 1.21684,-4.39569 15.50805,-20.6657 6.12383,-6.97176 11.13424,-13.38426 11.13424,-14.25 0,-3.32757 -3.53478,-1.20327 -15.30756,9.19937 -15.65229,13.83066 -19.32449,16.58171 -21.18223,15.86883 C 203.67959,158.32355 203,157.66292 203,157.17422 c 0,-0.4887 3.4875,-3.73791 7.75,-7.22047 4.2625,-3.48255 11.7074,-9.94675 16.54421,-14.36488 l 8.79422,-8.03297 -0.64437,-5.15732 c -1.14459,-9.16101 4.56024,-17.82155 13.50454,-20.50133 12.68006,-3.799036 25.94212,9.51102 22.13568,22.21579 -2.67489,8.92797 -11.36636,14.58193 -20.63558,13.42382 l -5.08156,-0.6349 -9.58634,10.79902 c -5.27248,5.93946 -11.71021,13.38652 -14.30605,16.54902 -4.93782,6.01573 -6.15687,6.74195 -7.11704,4.23979 z" fill="currentColor"/>
</svg>
